PathFileType	4	(X/Y/Z)
DataRate	CameraRate	NumFrames	NumMarkers	Units	OrigDataRate	OrigDataStartFrame	OrigNumFrames	
	120.0	120.0	4	39	mm	120.0	1	231
Frame#	Time	midhip	hip_r	hip_l	knee_r	knee_l	ankle_r	ankle_l	midasis	asis_r	asis_l	psis_r	psis_l	epicondLat_r	epicondLat_l	epicondMed_r	epicondMed_l	malleolusLat_r	malleolusLat_l	malleolusMedv_r	malleolusMedv_l	heel_r	heel_l	sternalnotch	xyphoidprocess	neck	subclavicle_r	subclavicle_l	toe_r	toe_l	thighwand_r	thighwand_l	upperleg1_r	upperleg1_l	upperleg2_r	upperleg2_l	shankwand_r	shankwand_l	lowerleg1_r	lowerleg1_l
	X1	Y1	Z1	X2	Y2	Z2	X3	Y3	Z3	X4	Y4	Z4	X5	Y5	Z5	X6	Y6	Z6	X7	Y7	Z7	X8	Y8	Z8	X9	Y9	Z9	X10	Y10	Z10	X11	Y11	Z11	X12	Y12	Z12	X13	Y13	Z13	X14	Y14	Z14	X15	Y15	Z15	X16	Y16	Z16	X17	Y17	Z17	X18	Y18	Z18	X19	Y19	Z19	X20	Y20	Z20	X21	Y21	Z21	X22	Y22	Z22	X23	Y23	Z23	X24	Y24	Z24	X25	Y25	Z25	X26	Y26	Z26	X27	Y27	Z27	X28	Y28	Z28	X29	Y29	Z29	X30	Y30	Z30	X31	Y31	Z31	X32	Y32	Z32	X33	Y33	Z33	X34	Y34	Z34	X35	Y35	Z35	X36	Y36	Z36	X37	Y37	Z37	X38	Y38	Z38	X39	Y39	Z39

	1	0.00833	1451.757	834.826	-260.285	1464.245	835.813	-202.901	1439.268	833.839	-317.669	1440.288	459.230	-179.700	1431.549	465.128	-343.485	1420.560	63.508	-174.215	1414.908	65.961	-355.483	1526.755	899.919	-271.627	1539.886	902.378	-170.685	1513.624	897.459	-372.569	1381.555	963.271	-228.930	1376.394	961.801	-283.882	1454.008	461.635	-126.493	1437.130	468.798	-397.574	1420.662	452.254	-230.577	1419.321	452.363	-292.126	1410.217	64.538	-137.145	1408.725	67.360	-393.457	1442.412	76.542	-201.874	1438.574	75.854	-333.139	1373.430	42.930	-168.796	1369.509	48.211	-343.032	1515.805	1296.920	-289.739	1584.268	1135.656	-286.412	1433.342	1347.450	-274.556	1536.969	1290.524	-230.988	1525.196	1284.046	-340.139	1534.121	40.997	-126.986	1532.320	38.956	-407.152	1586.710	618.008	-200.600	1566.515	622.642	-325.884	1520.103	675.097	-151.715	1496.938	671.905	-380.668	1504.758	590.082	-146.191	1492.433	583.587	-377.815	1409.286	186.796	-67.274	1360.202	185.156	-443.983	1414.134	192.886	-108.817	1380.951	189.520	-405.769
	2	0.01667	1451.666	834.873	-260.155	1464.146	835.894	-202.770	1439.186	833.853	-317.541	1440.241	459.241	-179.651	1431.484	465.129	-343.454	1420.526	63.543	-174.209	1414.926	65.973	-355.481	1526.643	899.987	-271.520	1539.768	902.504	-170.504	1513.518	897.469	-372.536	1381.514	963.273	-228.881	1376.286	961.796	-283.821	1453.972	461.635	-126.447	1437.042	468.814	-397.544	1420.565	452.253	-230.521	1420.005	452.169	-292.166	1410.190	64.568	-137.137	1408.727	67.374	-393.452	1442.435	76.600	-201.847	1438.645	76.050	-333.151	1373.510	42.921	-168.806	1369.602	48.152	-343.056	1515.754	1296.922	-289.689	1584.166	1135.636	-286.407	1433.273	1347.495	-274.489	1536.916	1290.505	-230.933	1525.140	1284.059	-340.098	1534.096	41.022	-126.985	1532.311	38.962	-407.145	1586.661	618.051	-200.609	1566.437	622.658	-325.903	1520.024	675.120	-151.728	1496.811	671.934	-380.627	1504.667	590.094	-146.176	1492.649	583.783	-377.802	1409.285	186.797	-67.259	1360.284	185.206	-444.048	1414.117	192.911	-108.782	1380.934	189.568	-405.751
	3	0.02500	1451.592	834.876	-260.103	1464.087	835.899	-202.720	1439.098	833.853	-317.485	1440.207	459.241	-179.611	1431.426	465.138	-343.412	1420.507	63.563	-174.201	1414.951	65.981	-355.480	1526.563	899.993	-271.488	1539.713	902.514	-170.478	1513.412	897.473	-372.498	1381.472	963.263	-228.830	1376.191	961.791	-283.767	1453.944	461.634	-126.408	1436.952	468.827	-397.506	1420.440	452.286	-230.490	1420.038	452.136	-292.123	1410.176	64.584	-137.127	1408.730	67.386	-393.448	1442.454	76.613	-201.826	1438.731	76.218	-333.161	1373.501	42.926	-168.790	1369.745	48.059	-343.088	1515.693	1296.917	-289.637	1584.104	1135.631	-286.357	1433.175	1347.515	-274.431	1536.861	1290.502	-230.878	1525.074	1284.053	-340.053	1534.043	41.049	-126.976	1532.292	38.970	-407.138	1586.612	618.089	-200.613	1566.355	622.683	-325.909	1519.969	675.119	-151.692	1496.688	671.941	-380.567	1504.594	590.097	-146.147	1492.572	583.828	-377.766	1409.283	186.797	-67.244	1360.247	185.211	-444.025	1414.119	192.915	-108.734	1380.945	189.575	-405.715
	4	0.03333	1451.540	834.833	-260.125	1464.073	835.826	-202.750	1439.007	833.840	-317.499	1440.175	459.225	-179.583	1431.373	465.151	-343.365	1420.498	63.563	-174.191	1414.973	65.987	-355.476	1526.516	899.941	-271.529	1539.724	902.410	-170.605	1513.308	897.473	-372.453	1381.426	963.237	-228.777	1376.108	961.784	-283.721	1453.914	461.626	-126.381	1436.864	468.833	-397.462	1420.411	452.297	-230.509	1420.086	452.065	-292.222	1410.168	64.582	-137.117	1408.728	67.396	-393.440	1442.443	76.590	-201.816	1438.747	76.211	-333.160	1373.496	42.913	-168.772	1369.919	47.930	-343.122	1515.638	1296.905	-289.636	1584.129	1135.652	-286.354	1433.067	1347.489	-274.368	1536.826	1290.507	-230.888	1525.011	1284.038	-340.048	1533.974	41.066	-126.960	1532.262	38.979	-407.134	1586.559	618.118	-200.609	1566.265	622.709	-325.898	1519.919	675.098	-151.647	1496.588	671.936	-380.541	1504.567	590.108	-146.135	1492.541	583.887	-377.785	1409.280	186.793	-67.231	1360.091	185.171	-443.917	1414.131	192.904	-108.707	1380.935	189.560	-405.697
